During the Vietnam War, a soldier finds himself the outsider of his own squad when they unnecessarily kidnap a female villager. 
 
http://www.imdb.com/title/tt0097027/

Subs: Dutch, English.

Amerika is in oorlog met Vietnam: Nadat een van hun makkers is vermoord, en de toegang tot een plaatselijk dorp met bijhorende bordelen hen wordt geweigerd, slaan de stoppen door bij een groep Amerikaanse soldaten. Ze ontvoeren een meisje uit haar dorp om haar in de jungle te verkrachten. Een van hen vindt dit moreel niet verantwoord, en komt in opstand...
 
http://www.moviemeter.nl/film/810

Subs: Engels, Nederlands.

General
Complete name                    : Casualties of War-AC3-XviD-DVDRip 1989.avi
Format                           : AVI
Format/Info                      : Audio Video Interleave
File size                        : 1.56 GiB
Duration                         : 1h 48mn
Overall bit rate                 : 2 047 Kbps
Writing application              : VirtualDubMod 1.5.4.1 (build 2178/release)
Writing library                  : VirtualDubMod build 2178/release
Source                           : Pal Retail

Video
ID                               : 0
Format                           : MPEG-4 Visual
Format profile                   : Simple@L3
Format settings, BVOP            : No
Format settings, QPel            : No
Format settings, GMC             : No warppoints
Format settings, Matrix          : Default (H.263)
Codec ID                         : XVID
Codec ID/Hint                    : XviD
Duration                         : 1h 48mn
Bit rate                         : 1 589 Kbps
Width                            : 720 pixels
Height                           : 304 pixels
Display aspect ratio             : 2.35:1
Frame rate                       : 25.000 fps
Color space                      : YUV
Chroma subsampling               : 4:2:0
Bit depth                        : 8 bits
Scan type                        : Progressive
Compression mode                 : Lossy
Bits/(Pixel*Frame)               : 0.290
Stream size                      : 1.21 GiB (78%)
Writing library                  : XviD 1.1.2 (UTC 2006-11-01)

Audio
ID                               : 1
Format                           : AC-3
Format/Info                      : Audio Coding 3
Mode extension                   : CM (complete main)
Codec ID                         : 2000
Duration                         : 1h 48mn
Bit rate mode                    : Constant
Bit rate                         : 448 Kbps
Channel(s)                       : 6 channels
Channel positions                : Front: L C R, Side: L R, LFE
Sampling rate                    : 48.0 KHz
Bit depth                        : 16 bits
Compression mode                 : Lossy
Stream size                      : 349 MiB (22%)
Alignment                        : Split accross interleaves
Interleave, duration             : 40 ms (1.00 video frame)
Interleave, preload duration     : 500 ms

Enjoy...

TBS.